<svg xmlns="http://www.w3.org/2000/svg" height="175" width="393.75"><path d="M40.58 160.358c12.053 0 22.326-4.754 29.139-13.567l-8.805-9.276c-5.346 6.494-11.95 9.624-19.601 9.624-15.199 0-26.205-11.827-26.205-28.524 0-16.696 11.006-28.523 26.205-28.523 7.652 0 14.255 3.13 19.601 9.508l8.805-9.16c-6.813-8.813-17.086-13.567-29.035-13.567-22.536 0-39.307 17.509-39.307 41.742 0 24.234 16.771 41.743 39.202 41.743zm42.241-1.16h32.075c23.794 0 40.04-16.233 40.04-40.583 0-24.349-16.246-40.582-40.04-40.582H82.82v81.165zm13.627-12.755V90.787h17.819c16.352 0 26.938 11.016 26.938 27.828 0 16.813-10.586 27.829-26.938 27.829h-17.82zm95.699 13.915c20.126 0 29.664-11.132 29.664-24.118 0-29.8-43.5-18.552-43.5-35.829 0-6.145 4.612-11.015 15.933-11.015 6.394 0 13.626 2.087 20.23 6.377l4.297-11.71c-6.393-4.639-15.618-7.19-24.422-7.19-20.126 0-29.56 11.132-29.56 24.234 0 30.147 43.605 18.668 43.605 36.176 0 6.03-4.821 10.552-16.247 10.552-9.014 0-18.343-3.71-24.213-8.928l-4.716 11.71c6.079 5.798 17.504 9.74 28.93 9.74z" fill="#063"/><path d="M254.072 78.033v12.639h15.513v68.526h13.626V78.033h-29.14zm74.316 82.325c17.505 0 30.712-15.074 30.712-41.743 0-26.668-13.207-41.742-30.712-41.742-17.4 0-30.607 15.074-30.607 41.742 0 26.669 13.207 41.743 30.607 41.743zm0-13.103c-9.958 0-16.876-9.044-16.876-28.64 0-19.595 6.918-28.64 16.876-28.64 10.063 0 16.98 9.045 16.98 28.64 0 19.596-6.917 28.64-16.98 28.64zm35.534-69.222v12.639h15.513v68.526h13.626V78.033h-29.14zM9.8 72.822c6.475 0 9.485-3.22 9.485-6.965 0-8.995-14.84-5.25-14.84-11.235 0-2.135 1.785-3.885 5.95-3.885 2.17 0 4.585.63 6.72 1.995l1.155-2.8c-2.03-1.4-5.005-2.17-7.875-2.17-6.44 0-9.38 3.22-9.38 7 0 9.1 14.84 5.32 14.84 11.305 0 2.135-1.82 3.78-6.055 3.78-3.15 0-6.265-1.19-8.085-2.835L.42 69.742c1.96 1.82 5.635 3.08 9.38 3.08zm30.87-9.45c0-5.705-3.815-9.555-9.17-9.555s-9.31 3.955-9.31 9.45c0 5.53 3.99 9.485 9.975 9.485 3.08 0 5.635-1.05 7.315-3.01l-1.855-2.17c-1.365 1.505-3.185 2.24-5.355 2.24-3.675 0-6.3-2.17-6.72-5.425H40.6c.035-.315.07-.735.07-1.015zm-9.17-6.72c3.255 0 5.6 2.205 5.95 5.32h-11.9c.35-3.15 2.73-5.32 5.95-5.32zm21.91 16.1c3.325 0 6.09-1.4 7.56-3.99l-2.555-1.61c-1.19 1.82-3.01 2.66-5.04 2.66-3.64 0-6.37-2.52-6.37-6.545 0-3.955 2.73-6.51 6.37-6.51 2.03 0 3.85.84 5.04 2.66l2.555-1.645c-1.47-2.59-4.235-3.955-7.56-3.955-5.705 0-9.8 3.92-9.8 9.45 0 5.53 4.095 9.485 9.8 9.485zm21.525-3.71c-.7.56-1.645.875-2.625.875-1.855 0-2.905-1.12-2.905-3.115V56.757h5.32v-2.765h-5.32v-4.06h-3.36v4.06h-3.15v2.765h3.15v10.185c0 3.745 2.135 5.81 5.88 5.81 1.505 0 3.045-.42 4.06-1.295l-1.05-2.415zm6.79-18.62c1.33 0 2.275-.98 2.275-2.24 0-1.19-.98-2.135-2.275-2.135s-2.275.98-2.275 2.205.98 2.17 2.275 2.17zm-1.68 22.12h3.36v-18.55h-3.36v18.55zm17.71.21c5.565 0 9.625-3.955 9.625-9.485 0-5.53-4.06-9.45-9.625-9.45s-9.66 3.92-9.66 9.45c0 5.53 4.095 9.485 9.66 9.485zm0-2.94c-3.57 0-6.265-2.59-6.265-6.545s2.695-6.51 6.265-6.51 6.23 2.555 6.23 6.51c0 3.955-2.66 6.545-6.23 6.545zm24.185-15.995c-2.94 0-5.32 1.085-6.685 2.975v-2.8h-3.22v18.55h3.36v-9.555c0-4.025 2.31-6.16 5.88-6.16 3.185 0 5.005 1.785 5.005 5.425v10.29h3.36V61.867c0-5.46-3.185-8.05-7.7-8.05zm31.85 19.005c5.705 0 9.975-4.55 9.975-12.53 0-7.98-4.27-12.53-9.975-12.53-5.74 0-10.01 4.55-10.01 12.53 0 7.98 4.27 12.53 10.01 12.53zm0-3.115c-3.85 0-6.51-3.15-6.51-9.415 0-6.265 2.66-9.415 6.51-9.415 3.815 0 6.475 3.15 6.475 9.415 0 6.265-2.66 9.415-6.475 9.415zm23.345 3.115c5.705 0 9.975-4.55 9.975-12.53 0-7.98-4.27-12.53-9.975-12.53-5.74 0-10.01 4.55-10.01 12.53 0 7.98 4.27 12.53 10.01 12.53zm0-3.115c-3.85 0-6.51-3.15-6.51-9.415 0-6.265 2.66-9.415 6.51-9.415 3.815 0 6.475 3.15 6.475 9.415 0 6.265-2.66 9.415-6.475 9.415zm11.935-21.665v3.045h5.53v21.455h3.465v-24.5h-8.995z"/></svg>